<?xml version="1.0" encoding="UTF-8" standalone="no"?>
<!-- Created with Inkscape (http://www.inkscape.org/) -->

<svg
   width="128"
   height="128"
   viewBox="0 0 128 128"
   version="1.1"
   id="svg1"
   xml:space="preserve"
   sodipodi:docname="scene_node_path.svg"
   inkscape:version="1.4 (86a8ad7, 2024-10-11)"
   xmlns:inkscape="http://www.inkscape.org/namespaces/inkscape"
   xmlns:sodipodi="http://sodipodi.sourceforge.net/DTD/sodipodi-0.dtd"
   xmlns="http://www.w3.org/2000/svg"
   xmlns:svg="http://www.w3.org/2000/svg"><sodipodi:namedview
     id="namedview1"
     pagecolor="#ffffff"
     bordercolor="#000000"
     borderopacity="0.25"
     inkscape:showpageshadow="2"
     inkscape:pageopacity="0.0"
     inkscape:pagecheckerboard="0"
     inkscape:deskcolor="#d1d1d1"
     inkscape:document-units="px"
     inkscape:zoom="3.8050549"
     inkscape:cx="64.256629"
     inkscape:cy="84.098656"
     inkscape:window-width="1245"
     inkscape:window-height="878"
     inkscape:window-x="367"
     inkscape:window-y="43"
     inkscape:window-maximized="0"
     inkscape:current-layer="svg1" /><defs
     id="defs1" /><g
     id="g5"
     transform="matrix(8.892025,0,0,8.892025,13.197423,12.067961)"><path
       fill="#41ec80"
       d="M 10.069166,5.8131265 V -0.18687368 H 8.0691654 V 3.8131265 c -0.552284,0 -1,-0.447715 -1,-1 v -3.00000018 h -2 V 2.8131265 c 0,1.656854 1.343146,3 3,3 z"
       id="path1-5" /><path
       d="m 6.3293388,3.5841115 v 2.0000003 h -1 c -3.9999991,0 -3.9999991,6.0000002 0,6.0000002 h 3 V 3.5841115 Z"
       id="path7"
       style="fill:#41ec80;fill-opacity:1" /></g><path
     style="fill:#417aec;fill-opacity:1;stroke:none;stroke-width:8.96565;stroke-dasharray:none;stroke-opacity:1"
     d="M 58.9513,25.69399 V 97.420719 H 76.882966 V 61.557353 a 8.9658411,8.9658411 0 0 1 8.96587,8.96581 V 97.420719 H 103.78051 V 70.523163 A 26.897521,26.897521 0 0 0 76.882966,43.625658 V 25.69399 Z"
     id="path12" /><path
     style="fill:#417aec;fill-opacity:1;stroke:none;stroke-width:8.96565;stroke-dasharray:none;stroke-opacity:1"
     d="M 23.239005,7.7255189 V 52.554691 a 26.897521,26.897521 0 0 0 26.897564,26.897555 h 8.965894 V 61.520552 h -8.965894 a 8.9658411,8.9658411 0 0 1 -8.965824,-8.965861 v -8.96581 H 59.102463 V 25.657187 H 41.170745 V 7.7255189 Z"
     id="path11" /><path
     style="fill:#417aec;fill-opacity:1;stroke:none;stroke-width:8.96565;stroke-dasharray:none;stroke-opacity:1"
     d="M 23.260847,44.547606 V 116.27434 H 41.192528 V 98.342639 a 26.897521,26.897521 0 0 0 0,-53.795033 z"
     id="path1-7-2-4" /><path
     d="M 23.195915,44.700949 V 80.269048 H 40.979969 V 44.700949 Z"
     id="path8"
     style="fill:#41ec80;fill-opacity:1;stroke-width:8.89203" /><path
     d="M 58.876205,43.525648 V 61.3097 H 76.660263 V 43.525648 Z"
     id="path2-5"
     style="fill:#41ec80;fill-opacity:1;stroke-width:8.89203" /></svg>
